<svg id="Layer_1" data-name="Layer 1" xmlns="http://www.w3.org/2000/svg" viewBox="0 0 700.85 362.03"><defs><style>.cls-1{fill:#123ba3;}</style></defs><title>Mo Amjed</title><path class="cls-1" d="M91.13,304.65V255.08h-.26l-30,40-30-40h-.26v49.57H15.38V234.83h17.9l27.62,37,27.62-37h17.9v69.82Z"/><path class="cls-1" d="M198.07,295.2c-7.91,7.23-19.11,11.47-32,11.47S142,302.43,134.22,295.2c-7.12-6.56-10.77-15.34-10.77-25.56a33.37,33.37,0,0,1,10.86-25.36c8-7.33,19.37-11.57,31.88-11.57s24,4.34,31.88,11.57a33.41,33.41,0,0,1,10.86,25.36C208.93,279.86,205.19,288.64,198.07,295.2Zm-31.88-49c-16.42,0-27,9.64-27,23.43,0,14.08,10.34,23.53,26.93,23.53s27.1-9.45,27.1-23.53C193.2,255.85,182.69,246.21,166.19,246.21Z"/><path class="cls-1" d="M312.13,304.65l-7.21-15H264.61l-7.21,15H241.94l33.45-69.82h18.85l33.35,69.82Zm-27.45-57.09L270.87,276.2h27.62Z"/><path class="cls-1" d="M412.72,304.65V255.08h-.26l-30,40-30-40h-.27v49.57H337V234.83h17.89l27.62,37,27.62-37H428v69.82Z"/><path class="cls-1" d="M469.63,306.67c-18.07,0-28.06-8.87-29.45-25.75h15.38c1,8.11,5,11,13.63,11,11,0,16.07-2.8,16.07-11.48V234.83h15.29v46.58C500.55,297.42,489.69,306.67,469.63,306.67Z"/><path class="cls-1" d="M520.71,304.65V234.83H588.9v13.4H536v14.28h36.74v13.4H536v15.33h55.33v13.41Z"/><path class="cls-1" d="M686.45,270.51c0,10.13-3.73,18.71-11.2,25.27a37.49,37.49,0,0,1-24.76,8.87h-44.3V234.83H648.4C671.77,234.83,686.45,249.1,686.45,270.51Zm-20,11.76a21,21,0,0,0,3.91-12c0-12.73-8.68-22-21-22H621.48v43h28A21.31,21.31,0,0,0,666.47,282.27Z"/><polygon points="349.06 119.06 349.06 206.34 392.19 206.34 392.19 184.28 417.14 184.28 417.14 149.88 392.19 149.88 392.19 138.22 429.35 106.24 429.35 206.34 472.9 206.34 472.9 13.01 349.06 119.06"/><polygon class="cls-1" points="378 13.28 325.06 57.11 281.19 13.39 228.93 13.39 228.93 206.34 272.34 206.34 272.34 65.75 324.43 114.4 443.88 13.28 378 13.28"/><path d="M27.59,328.94a6.77,6.77,0,0,1,3.06,2.54,7.78,7.78,0,0,1,0,7.84,6.87,6.87,0,0,1-3.06,2.56,11.46,11.46,0,0,1-4.68.88H18.24v6H14.4V328.05h8.51A11.46,11.46,0,0,1,27.59,328.94Zm-1.05,9.51a4.22,4.22,0,0,0,0-6.09,6,6,0,0,0-3.81-1.06H18.24v8.21h4.49A5.9,5.9,0,0,0,26.54,338.45Z"/><path d="M57.65,348.73l-4.23-6.06a7.55,7.55,0,0,1-.79,0H48v6H44.12V328.05h8.51a11.46,11.46,0,0,1,4.68.89,6.77,6.77,0,0,1,3.06,2.54,7.17,7.17,0,0,1,1.06,3.93,7,7,0,0,1-1.14,4A6.7,6.7,0,0,1,57,341.93l4.75,6.8Zm-1.39-16.37a6,6,0,0,0-3.81-1.06H48v8.24h4.49a5.85,5.85,0,0,0,3.81-1.08,4.23,4.23,0,0,0,0-6.1Z"/><path d="M89.79,345.51v3.22H74.28V328.05H89.37v3.22H78.12v5.38h10v3.16h-10v5.7Z"/><path d="M106.46,347.65a10.19,10.19,0,0,1-4-3.8,11.09,11.09,0,0,1,0-10.93,10.19,10.19,0,0,1,4-3.79,11.62,11.62,0,0,1,5.66-1.37,11.84,11.84,0,0,1,4.64.88,9.41,9.41,0,0,1,3.54,2.57l-2.48,2.34a7.23,7.23,0,0,0-5.52-2.43,7.73,7.73,0,0,0-3.81.93,6.68,6.68,0,0,0-2.63,2.59,7.88,7.88,0,0,0,0,7.5,6.68,6.68,0,0,0,2.63,2.59,7.73,7.73,0,0,0,3.81.93,7.22,7.22,0,0,0,5.52-2.45l2.48,2.36a9.4,9.4,0,0,1-3.56,2.57,11.86,11.86,0,0,1-4.65.88A11.62,11.62,0,0,1,106.46,347.65Z"/><path d="M132.59,328.05h3.84v20.68h-3.84Z"/><path d="M152.37,348.34a9.5,9.5,0,0,1-3.53-1.8l1.33-3a10.28,10.28,0,0,0,3.11,1.64,11.43,11.43,0,0,0,3.71.63,6.43,6.43,0,0,0,3.44-.73,2.25,2.25,0,0,0,1.14-2,1.9,1.9,0,0,0-.64-1.47,4.54,4.54,0,0,0-1.61-.9c-.64-.21-1.53-.46-2.65-.74a29.51,29.51,0,0,1-3.83-1.12,6.2,6.2,0,0,1-2.51-1.76,4.7,4.7,0,0,1-1.05-3.23,5.55,5.55,0,0,1,.93-3.12,6.34,6.34,0,0,1,2.81-2.23,11.39,11.39,0,0,1,4.59-.82,14.59,14.59,0,0,1,3.72.47,10.13,10.13,0,0,1,3.16,1.36l-1.21,3a12.13,12.13,0,0,0-2.83-1.21,10.49,10.49,0,0,0-2.87-.42,6,6,0,0,0-3.38.77,2.39,2.39,0,0,0-1.11,2,1.83,1.83,0,0,0,.64,1.45,4.68,4.68,0,0,0,1.61.89c.65.21,1.53.46,2.65.73a29.65,29.65,0,0,1,3.79,1.11,6.54,6.54,0,0,1,2.52,1.76,4.63,4.63,0,0,1,1,3.19,5.44,5.44,0,0,1-.93,3.1,6.29,6.29,0,0,1-2.82,2.22A11.52,11.52,0,0,1,157,349,15.47,15.47,0,0,1,152.37,348.34Z"/><path d="M177.73,328.05h3.84v20.68h-3.84Z"/><path d="M199.68,347.65a10.16,10.16,0,0,1-4-3.81,11,11,0,0,1,0-10.9,10,10,0,0,1,4-3.81,12.54,12.54,0,0,1,11.4,0,10.25,10.25,0,0,1,4,3.79,11,11,0,0,1,0,10.93,10.27,10.27,0,0,1-4,3.8,12.54,12.54,0,0,1-11.4,0Zm9.42-2.92a6.77,6.77,0,0,0,2.6-2.6,7.84,7.84,0,0,0,0-7.48,6.77,6.77,0,0,0-2.6-2.6,7.9,7.9,0,0,0-7.44,0,6.7,6.7,0,0,0-2.6,2.6,7.84,7.84,0,0,0,0,7.48,6.7,6.7,0,0,0,2.6,2.6,7.91,7.91,0,0,0,7.44,0Z"/><path d="M247.53,328.05v20.68h-3.16l-11.4-14v14h-3.81V328.05h3.16l11.4,14v-14Z"/><path d="M291.56,328.94a6.77,6.77,0,0,1,3.06,2.54,7.72,7.72,0,0,1,0,7.84,6.87,6.87,0,0,1-3.06,2.56,11.4,11.4,0,0,1-4.68.88h-4.66v6h-3.84V328.05h8.5A11.39,11.39,0,0,1,291.56,328.94Zm-1,9.51a4.22,4.22,0,0,0,0-6.09,6,6,0,0,0-3.82-1.06h-4.48v8.21h4.48A5.92,5.92,0,0,0,290.52,338.45Z"/><path d="M321.62,348.73l-4.22-6.06a7.91,7.91,0,0,1-.8,0h-4.67v6h-3.84V328.05h8.51a11.46,11.46,0,0,1,4.68.89,6.77,6.77,0,0,1,3.06,2.54,7.75,7.75,0,0,1-.07,7.94,6.73,6.73,0,0,1-3.27,2.51l4.76,6.8Zm-1.39-16.37a6,6,0,0,0-3.81-1.06h-4.49v8.24h4.49a5.83,5.83,0,0,0,3.81-1.08,4.23,4.23,0,0,0,0-6.1Z"/><path d="M342.21,347.65a10.3,10.3,0,0,1-4-3.81,11,11,0,0,1,0-10.9,10.16,10.16,0,0,1,4-3.81,12.56,12.56,0,0,1,11.41,0,10.25,10.25,0,0,1,4,3.79,11.09,11.09,0,0,1,0,10.93,10.27,10.27,0,0,1-4,3.8,12.56,12.56,0,0,1-11.41,0Zm9.42-2.92a6.72,6.72,0,0,0,2.61-2.6,7.91,7.91,0,0,0,0-7.48,6.72,6.72,0,0,0-2.61-2.6,7.9,7.9,0,0,0-7.44,0,6.77,6.77,0,0,0-2.6,2.6,7.91,7.91,0,0,0,0,7.48,6.77,6.77,0,0,0,2.6,2.6,7.9,7.9,0,0,0,7.44,0Z"/><path d="M375.59,331.3h-6.85v-3.25h17.55v3.25h-6.86v17.43h-3.84Z"/><path d="M413.26,345.51v3.22H397.75V328.05h15.09v3.22H401.59v5.38h10v3.16h-10v5.7Z"/><path d="M429.93,347.65a10.19,10.19,0,0,1-4-3.8,10.54,10.54,0,0,1-1.43-5.46,10.43,10.43,0,0,1,1.45-5.47,10.19,10.19,0,0,1,4-3.79,11.59,11.59,0,0,1,5.66-1.37,11.84,11.84,0,0,1,4.64.88,9.41,9.41,0,0,1,3.54,2.57l-2.48,2.34a7.24,7.24,0,0,0-5.53-2.43,7.79,7.79,0,0,0-3.81.93,6.73,6.73,0,0,0-2.62,2.59,7.88,7.88,0,0,0,0,7.5,6.73,6.73,0,0,0,2.62,2.59,7.79,7.79,0,0,0,3.81.93,7.22,7.22,0,0,0,5.53-2.45l2.48,2.36a9.4,9.4,0,0,1-3.56,2.57,11.93,11.93,0,0,1-4.65.88A11.62,11.62,0,0,1,429.93,347.65Z"/><path d="M460,331.3h-6.85v-3.25h17.55v3.25h-6.86v17.43H460Z"/><path d="M483.75,348.34a9.66,9.66,0,0,1-3.53-1.8l1.33-3a10.45,10.45,0,0,0,3.12,1.64,11.43,11.43,0,0,0,3.71.63,6.43,6.43,0,0,0,3.44-.73,2.25,2.25,0,0,0,1.14-2,1.9,1.9,0,0,0-.64-1.47,4.45,4.45,0,0,0-1.61-.9c-.65-.21-1.53-.46-2.66-.74a29.3,29.3,0,0,1-3.82-1.12,6.27,6.27,0,0,1-2.51-1.76,4.7,4.7,0,0,1-1.05-3.23,5.55,5.55,0,0,1,.93-3.12,6.34,6.34,0,0,1,2.81-2.23,11.39,11.39,0,0,1,4.59-.82,14.59,14.59,0,0,1,3.72.47,10.13,10.13,0,0,1,3.16,1.36l-1.21,3a12.13,12.13,0,0,0-2.83-1.21,10.49,10.49,0,0,0-2.87-.42,6,6,0,0,0-3.38.77,2.39,2.39,0,0,0-1.11,2,1.85,1.85,0,0,0,.63,1.45,4.88,4.88,0,0,0,1.61.89c.66.21,1.54.46,2.66.73a29.65,29.65,0,0,1,3.79,1.11,6.54,6.54,0,0,1,2.52,1.76,4.63,4.63,0,0,1,1.05,3.19,5.44,5.44,0,0,1-.93,3.1A6.29,6.29,0,0,1,493,348.2a11.52,11.52,0,0,1-4.61.82A15.63,15.63,0,0,1,483.75,348.34Z"/><path d="M539,328.94a6.77,6.77,0,0,1,3.06,2.54,7.72,7.72,0,0,1,0,7.84,6.87,6.87,0,0,1-3.06,2.56,11.4,11.4,0,0,1-4.68.88h-4.66v6h-3.84V328.05h8.5A11.39,11.39,0,0,1,539,328.94Zm-1,9.51a4.22,4.22,0,0,0,0-6.09,6,6,0,0,0-3.82-1.06h-4.48v8.21h4.48A5.92,5.92,0,0,0,538,338.45Z"/><path d="M569.08,348.73l-4.22-6.06a7.77,7.77,0,0,1-.8,0h-4.67v6h-3.84V328.05h8.51a11.43,11.43,0,0,1,4.68.89,6.77,6.77,0,0,1,3.06,2.54,7.69,7.69,0,0,1-.07,7.94,6.73,6.73,0,0,1-3.27,2.51l4.76,6.8Zm-1.38-16.37a6,6,0,0,0-3.82-1.06h-4.49v8.24h4.49a5.86,5.86,0,0,0,3.82-1.08,4.25,4.25,0,0,0,0-6.1Z"/><path d="M589.67,347.65a10.2,10.2,0,0,1-4-3.81,11,11,0,0,1,0-10.9,10.06,10.06,0,0,1,4-3.81,12.56,12.56,0,0,1,11.41,0,10.25,10.25,0,0,1,4,3.79,11.09,11.09,0,0,1,0,10.93,10.27,10.27,0,0,1-4,3.8,12.56,12.56,0,0,1-11.41,0Zm9.43-2.92a6.77,6.77,0,0,0,2.6-2.6,7.91,7.91,0,0,0,0-7.48,6.77,6.77,0,0,0-2.6-2.6,7.93,7.93,0,0,0-7.45,0,6.77,6.77,0,0,0-2.6,2.6,7.91,7.91,0,0,0,0,7.48,6.77,6.77,0,0,0,2.6,2.6,7.93,7.93,0,0,0,7.45,0Z"/><path d="M623,331.27v6.29h10v3.25H623v7.92h-3.84V328.05h15.09v3.22Z"/><path d="M646.54,328.05h3.84v20.68h-3.84Z"/><path d="M668.73,331.3h-6.86v-3.25h17.55v3.25h-6.85v17.43h-3.84Z"/></svg>